<svg data-v-fde0c5aa="" xmlns="http://www.w3.org/2000/svg" viewBox="0 0 300 300" class="font"><!----><defs data-v-fde0c5aa=""><!----></defs><rect data-v-fde0c5aa="" fill="transparent" x="0" y="0" width="300px" height="300px" class="logo-background-square"></rect><defs data-v-fde0c5aa=""><linearGradient data-v-fde0c5aa="" gradientTransform="rotate(25)" id="7eaa1034-f175-4b64-b1e2-f0d9ecd02861" x1="0%" y1="0%" x2="100%" y2="0%"><stop data-v-fde0c5aa="" offset="0%" stop-color="#FF4888" stop-opacity="1"></stop><stop data-v-fde0c5aa="" offset="100%" stop-color="#360264" stop-opacity="1"></stop></linearGradient></defs><g data-v-fde0c5aa="" id="9440a78a-3d9f-496d-ba63-5f0efbcc683d" fill="url(#7eaa1034-f175-4b64-b1e2-f0d9ecd02861)" transform="matrix(2.243020534515381,0,0,2.243020534515381,39.71086064757657,130.92556453861164)"><path d="M12.42 1.40L12.42 1.40Q12.70 1.40 12.84 1.57L12.84 1.57L12.84 1.57Q12.98 1.74 12.98 2.02L12.98 2.02L12.98 2.02Q12.98 2.23 12.92 2.41L12.92 2.41L10.11 11.75L10.11 11.75Q10.01 12.01 9.82 12.17L9.82 12.17L9.82 12.17Q9.63 12.33 9.38 12.33L9.38 12.33L9.38 12.33Q9.13 12.33 8.93 12.17L8.93 12.17L8.93 12.17Q8.74 12.01 8.65 11.76L8.65 11.76L6.57 3.70L4.45 11.75L4.45 11.75Q4.35 12.01 4.17 12.17L4.17 12.17L4.17 12.17Q3.98 12.33 3.72 12.33L3.72 12.33L3.72 12.33Q3.47 12.33 3.28 12.18L3.28 12.18L3.28 12.18Q3.08 12.03 3.00 11.76L3.00 11.76L0.18 2.41L0.18 2.41Q0.13 2.23 0.13 2.03L0.13 2.03L0.13 2.03Q0.13 1.74 0.29 1.57L0.29 1.57L0.29 1.57Q0.45 1.40 0.73 1.40L0.73 1.40L0.73 1.40Q0.98 1.40 1.17 1.54L1.17 1.54L1.17 1.54Q1.36 1.68 1.44 1.95L1.44 1.95L3.74 9.93L5.85 2.03L5.85 2.03Q5.91 1.82 6.10 1.68L6.10 1.68L6.10 1.68Q6.30 1.54 6.55 1.54L6.55 1.54L6.55 1.54Q6.79 1.54 6.99 1.67L6.99 1.67L6.99 1.67Q7.18 1.79 7.24 2.02L7.24 2.02L9.38 9.98L11.70 1.88L11.70 1.88Q11.77 1.62 11.95 1.51L11.95 1.51L11.95 1.51Q12.12 1.40 12.42 1.40L12.42 1.40ZM21.27 8.39L21.27 8.39Q21.27 8.65 21.08 8.83L21.08 8.83L21.08 8.83Q20.90 9.00 20.62 9.00L20.62 9.00L15.30 9.00L15.30 9.00Q15.46 9.98 16.19 10.58L16.19 10.58L16.19 10.58Q16.93 11.19 17.99 11.19L17.99 11.19L17.99 11.19Q18.41 11.19 18.87 11.03L18.87 11.03L18.87 11.03Q19.32 10.88 19.61 10.65L19.61 10.65L19.61 10.65Q19.81 10.50 20.08 10.50L20.08 10.50L20.08 10.50Q20.34 10.50 20.50 10.64L20.50 10.64L20.50 10.64Q20.75 10.85 20.75 11.12L20.75 11.12L20.75 11.12Q20.75 11.37 20.52 11.54L20.52 11.54L20.52 11.54Q20.05 11.91 19.34 12.15L19.34 12.15L19.34 12.15Q18.63 12.39 17.99 12.39L17.99 12.39L17.99 12.39Q16.84 12.39 15.93 11.89L15.93 11.89L15.93 11.89Q15.02 11.40 14.51 10.51L14.51 10.51L14.51 10.51Q14 9.63 14 8.51L14 8.51L14 8.51Q14 7.39 14.48 6.50L14.48 6.50L14.48 6.50Q14.97 5.61 15.83 5.12L15.83 5.12L15.83 5.12Q16.69 4.62 17.78 4.62L17.78 4.62L17.78 4.62Q18.86 4.62 19.64 5.10L19.64 5.10L19.64 5.10Q20.43 5.57 20.85 6.43L20.85 6.43L20.85 6.43Q21.27 7.28 21.27 8.39L21.27 8.39ZM17.78 5.82L17.78 5.82Q16.76 5.82 16.12 6.38L16.12 6.38L16.12 6.38Q15.48 6.94 15.32 7.88L15.32 7.88L19.98 7.88L19.98 7.88Q19.85 6.94 19.28 6.38L19.28 6.38L19.28 6.38Q18.70 5.82 17.78 5.82L17.78 5.82ZM23.80 1.40L23.80 1.40Q23.48 1.40 23.28 1.60L23.28 1.60L23.28 1.60Q23.09 1.79 23.09 2.11L23.09 2.11L23.09 8.50L23.09 8.50Q23.09 9.59 23.60 10.48L23.60 10.48L23.60 10.48Q24.11 11.37 24.98 11.88L24.98 11.88L24.98 11.88Q25.86 12.39 26.94 12.39L26.94 12.39L26.94 12.39Q28.01 12.39 28.90 11.88L28.90 11.88L28.90 11.88Q29.79 11.37 30.30 10.48L30.30 10.48L30.30 10.48Q30.80 9.59 30.80 8.50L30.80 8.50L30.80 8.50Q30.80 7.41 30.33 6.52L30.33 6.52L30.33 6.52Q29.86 5.63 29.04 5.12L29.04 5.12L29.04 5.12Q28.22 4.62 27.22 4.62L27.22 4.62L27.22 4.62Q26.40 4.62 25.70 4.96L25.70 4.96L25.70 4.96Q25.00 5.29 24.51 5.89L24.51 5.89L24.51 2.11L24.51 2.11Q24.51 1.79 24.31 1.60L24.31 1.60L24.31 1.60Q24.11 1.40 23.80 1.40L23.80 1.40ZM26.94 11.13L26.94 11.13Q26.24 11.13 25.67 10.79L25.67 10.79L25.67 10.79Q25.10 10.44 24.78 9.84L24.78 9.84L24.78 9.84Q24.46 9.24 24.46 8.50L24.46 8.50L24.46 8.50Q24.46 7.76 24.78 7.16L24.78 7.16L24.78 7.16Q25.10 6.57 25.67 6.22L25.67 6.22L25.67 6.22Q26.24 5.88 26.94 5.88L26.94 5.88L26.94 5.88Q27.64 5.88 28.20 6.22L28.20 6.22L28.20 6.22Q28.77 6.57 29.10 7.16L29.10 7.16L29.10 7.16Q29.43 7.76 29.43 8.50L29.43 8.50L29.43 8.50Q29.43 9.24 29.10 9.84L29.10 9.84L29.10 9.84Q28.77 10.44 28.20 10.79L28.20 10.79L28.20 10.79Q27.64 11.13 26.94 11.13L26.94 11.13ZM41.24 11.31L41.24 11.31Q41.31 11.49 41.31 11.62L41.31 11.62L41.31 11.62Q41.31 11.91 41.10 12.12L41.10 12.12L41.10 12.12Q40.89 12.33 40.59 12.33L40.59 12.33L40.59 12.33Q40.38 12.33 40.19 12.21L40.19 12.21L40.19 12.21Q40.00 12.10 39.91 11.89L39.91 11.89L39.13 9.93L34.10 9.93L33.31 11.89L33.31 11.89Q33.21 12.10 33.03 12.21L33.03 12.21L33.03 12.21Q32.84 12.33 32.63 12.33L32.63 12.33L32.63 12.33Q32.33 12.33 32.12 12.12L32.12 12.12L32.12 12.12Q31.92 11.90 31.92 11.61L31.92 11.61L31.92 11.61Q31.92 11.47 31.99 11.28L31.99 11.28L35.92 1.89L35.92 1.89Q36.13 1.40 36.61 1.40L36.61 1.40L36.61 1.40Q37.11 1.40 37.30 1.89L37.30 1.89L41.24 11.31ZM34.59 8.72L38.64 8.72L36.64 3.74L34.59 8.72ZM46.62 4.62L46.62 4.62Q47.70 4.62 48.59 5.13L48.59 5.13L48.59 5.13Q49.48 5.64 49.98 6.53L49.98 6.53L49.98 6.53Q50.48 7.42 50.48 8.51L50.48 8.51L50.48 8.51Q50.48 9.60 50.02 10.49L50.02 10.49L50.02 10.49Q49.55 11.38 48.73 11.89L48.73 11.89L48.73 11.89Q47.91 12.39 46.90 12.39L46.90 12.39L46.90 12.39Q46.09 12.39 45.39 12.05L45.39 12.05L45.39 12.05Q44.69 11.72 44.20 11.12L44.20 11.12L44.20 14.90L44.20 14.90Q44.20 15.22 44.00 15.41L44.00 15.41L44.00 15.41Q43.81 15.61 43.48 15.61L43.48 15.61L43.48 15.61Q43.18 15.61 42.97 15.41L42.97 15.41L42.97 15.41Q42.77 15.22 42.77 14.90L42.77 14.90L42.77 8.51L42.77 8.51Q42.77 7.42 43.28 6.53L43.28 6.53L43.28 6.53Q43.79 5.64 44.67 5.13L44.67 5.13L44.67 5.13Q45.54 4.62 46.62 4.62L46.62 4.62ZM46.62 11.13L46.62 11.13Q47.32 11.13 47.89 10.79L47.89 10.79L47.89 10.79Q48.45 10.44 48.78 9.85L48.78 9.85L48.78 9.85Q49.11 9.25 49.11 8.51L49.11 8.51L49.11 8.51Q49.11 7.77 48.78 7.17L48.78 7.17L48.78 7.17Q48.45 6.57 47.89 6.22L47.89 6.22L47.89 6.22Q47.32 5.88 46.62 5.88L46.62 5.88L46.62 5.88Q45.92 5.88 45.35 6.22L45.35 6.22L45.35 6.22Q44.79 6.57 44.46 7.17L44.46 7.17L44.46 7.17Q44.14 7.77 44.14 8.51L44.14 8.51L44.14 8.51Q44.14 9.25 44.46 9.85L44.46 9.85L44.46 9.85Q44.79 10.44 45.35 10.79L45.35 10.79L45.35 10.79Q45.92 11.13 46.62 11.13L46.62 11.13ZM52.33 2.10L52.33 2.10Q52.33 1.79 52.53 1.60L52.53 1.60L52.53 1.60Q52.72 1.40 53.03 1.40L53.03 1.40L53.03 1.40Q53.34 1.40 53.54 1.60L53.54 1.60L53.54 1.60Q53.73 1.79 53.73 2.10L53.73 2.10L53.73 9.74L53.73 9.74Q53.73 10.26 53.93 10.60L53.93 10.60L53.93 10.60Q54.12 10.93 54.43 10.93L54.43 10.93L54.78 10.93L54.78 10.93Q55.06 10.93 55.24 11.13L55.24 11.13L55.24 11.13Q55.41 11.33 55.41 11.63L55.41 11.63L55.41 11.63Q55.41 11.94 55.15 12.14L55.15 12.14L55.15 12.14Q54.88 12.33 54.46 12.33L54.46 12.33L54.43 12.33L54.43 12.33Q53.83 12.33 53.35 12.00L53.35 12.00L53.35 12.00Q52.86 11.68 52.60 11.08L52.60 11.08L52.60 11.08Q52.33 10.49 52.33 9.74L52.33 9.74L52.33 2.10ZM56.95 5.39L56.95 5.39Q56.95 5.07 57.16 4.87L57.16 4.87L57.16 4.87Q57.36 4.68 57.67 4.68L57.67 4.68L57.67 4.68Q57.99 4.68 58.18 4.87L58.18 4.87L58.18 4.87Q58.38 5.07 58.38 5.39L58.38 5.39L58.38 11.62L58.38 11.62Q58.38 11.93 58.18 12.13L58.18 12.13L58.18 12.13Q57.99 12.33 57.67 12.33L57.67 12.33L57.67 12.33Q57.36 12.33 57.16 12.13L57.16 12.13L57.16 12.13Q56.95 11.93 56.95 11.62L56.95 11.62L56.95 5.39ZM57.67 1.58L57.67 1.58Q58.04 1.58 58.32 1.85L58.32 1.85L58.32 1.85Q58.59 2.13 58.59 2.51L58.59 2.51L58.59 2.51Q58.59 2.88 58.32 3.16L58.32 3.16L58.32 3.16Q58.04 3.43 57.67 3.43L57.67 3.43L57.67 3.43Q57.29 3.43 57.02 3.16L57.02 3.16L57.02 3.16Q56.74 2.88 56.74 2.51L56.74 2.51L56.74 2.51Q56.74 2.13 57.02 1.85L57.02 1.85L57.02 1.85Q57.29 1.58 57.67 1.58L57.67 1.58ZM66.82 11.33L66.82 11.33Q66.98 11.49 66.98 11.75L66.98 11.75L66.98 11.75Q66.98 12.05 66.72 12.26L66.72 12.26L66.72 12.26Q66.51 12.43 66.28 12.43L66.28 12.43L66.28 12.43Q65.97 12.43 65.77 12.18L65.77 12.18L63.11 8.89L62.41 9.51L62.41 11.65L62.41 11.65Q62.41 11.96 62.22 12.14L62.22 12.14L62.22 12.14Q62.03 12.33 61.73 12.33L61.73 12.33L61.73 12.33Q61.42 12.33 61.23 12.14L61.23 12.14L61.23 12.14Q61.04 11.96 61.04 11.65L61.04 11.65L61.04 2.09L61.04 2.09Q61.04 1.78 61.23 1.59L61.23 1.59L61.23 1.59Q61.42 1.40 61.73 1.40L61.73 1.40L61.73 1.40Q62.03 1.40 62.22 1.59L62.22 1.59L62.22 1.59Q62.41 1.78 62.41 2.09L62.41 2.09L62.41 7.78L65.81 4.75L65.81 4.75Q66.00 4.56 66.25 4.56L66.25 4.56L66.25 4.56Q66.54 4.56 66.72 4.79L66.72 4.79L66.72 4.79Q66.91 4.97 66.91 5.22L66.91 5.22L66.91 5.22Q66.91 5.52 66.68 5.70L66.68 5.70L64.11 7.99L66.82 11.33ZM72.48 4.62L72.48 4.62Q73.56 4.62 74.43 5.13L74.43 5.13L74.43 5.13Q75.31 5.64 75.82 6.53L75.82 6.53L75.82 6.53Q76.33 7.42 76.33 8.51L76.33 8.51L76.33 11.63L76.33 11.63Q76.33 11.94 76.13 12.14L76.13 12.14L76.13 12.14Q75.92 12.35 75.61 12.35L75.61 12.35L75.61 12.35Q75.31 12.35 75.10 12.14L75.10 12.14L75.10 12.14Q74.90 11.94 74.90 11.63L74.90 11.63L74.90 11.12L74.90 11.12Q74.41 11.72 73.71 12.05L73.71 12.05L73.71 12.05Q73.01 12.39 72.20 12.39L72.20 12.39L72.20 12.39Q71.19 12.39 70.37 11.89L70.37 11.89L70.37 11.89Q69.55 11.38 69.08 10.49L69.08 10.49L69.08 10.49Q68.61 9.60 68.61 8.51L68.61 8.51L68.61 8.51Q68.61 7.42 69.12 6.53L69.12 6.53L69.12 6.53Q69.62 5.64 70.51 5.13L70.51 5.13L70.51 5.13Q71.40 4.62 72.48 4.62L72.48 4.62ZM72.48 11.13L72.48 11.13Q73.18 11.13 73.74 10.79L73.74 10.79L73.74 10.79Q74.31 10.44 74.63 9.85L74.63 9.85L74.63 9.85Q74.96 9.25 74.96 8.51L74.96 8.51L74.96 8.51Q74.96 7.77 74.63 7.17L74.63 7.17L74.63 7.17Q74.31 6.57 73.74 6.22L73.74 6.22L73.74 6.22Q73.18 5.88 72.48 5.88L72.48 5.88L72.48 5.88Q71.78 5.88 71.21 6.22L71.21 6.22L71.21 6.22Q70.64 6.57 70.31 7.17L70.31 7.17L70.31 7.17Q69.99 7.77 69.99 8.51L69.99 8.51L69.99 8.51Q69.99 9.25 70.31 9.85L70.31 9.85L70.31 9.85Q70.64 10.44 71.21 10.79L71.21 10.79L71.21 10.79Q71.78 11.13 72.48 11.13L72.48 11.13ZM81.86 4.62L81.86 4.62Q83.51 4.62 84.60 5.88L84.60 5.88L84.60 5.88Q84.74 6.03 84.74 6.24L84.74 6.24L84.74 6.24Q84.74 6.55 84.43 6.76L84.43 6.76L84.43 6.76Q84.29 6.86 84.11 6.86L84.11 6.86L84.11 6.86Q83.79 6.86 83.57 6.61L83.57 6.61L83.57 6.61Q83.22 6.23 82.80 6.05L82.80 6.05L82.80 6.05Q82.39 5.88 81.86 5.88L81.86 5.88L81.86 5.88Q80.78 5.88 80.11 6.60L80.11 6.60L80.11 6.60Q79.44 7.32 79.44 8.51L79.44 8.51L79.44 8.51Q79.44 9.27 79.75 9.86L79.75 9.86L79.75 9.86Q80.07 10.46 80.63 10.79L80.63 10.79L80.63 10.79Q81.20 11.13 81.93 11.13L81.93 11.13L81.93 11.13Q82.88 11.13 83.47 10.64L83.47 10.64L83.47 10.64Q83.73 10.44 83.99 10.44L83.99 10.44L83.99 10.44Q84.18 10.44 84.35 10.57L84.35 10.57L84.35 10.57Q84.62 10.79 84.62 11.07L84.62 11.07L84.62 11.07Q84.62 11.28 84.45 11.45L84.45 11.45L84.45 11.45Q83.44 12.39 81.93 12.39L81.93 12.39L81.93 12.39Q80.82 12.39 79.94 11.89L79.94 11.89L79.94 11.89Q79.06 11.38 78.56 10.49L78.56 10.49L78.56 10.49Q78.06 9.60 78.06 8.51L78.06 8.51L78.06 8.51Q78.06 7.39 78.55 6.50L78.55 6.50L78.55 6.50Q79.03 5.61 79.90 5.12L79.90 5.12L79.90 5.12Q80.77 4.62 81.86 4.62L81.86 4.62ZM88.23 12.31L88.23 12.31Q88.23 13.26 87.81 14.01L87.81 14.01L87.81 14.01Q87.39 14.77 86.63 15.19L86.63 15.19L86.63 15.19Q85.88 15.61 84.91 15.61L84.91 15.61L84.91 15.61Q84.60 15.61 84.41 15.41L84.41 15.41L84.41 15.41Q84.21 15.20 84.21 14.90L84.21 14.90L84.21 14.90Q84.21 14.59 84.41 14.38L84.41 14.38L84.41 14.38Q84.60 14.18 84.91 14.18L84.91 14.18L84.91 14.18Q85.74 14.18 86.27 13.66L86.27 13.66L86.27 13.66Q86.80 13.13 86.80 12.31L86.80 12.31L86.80 5.39L86.80 5.39Q86.80 5.07 87.00 4.87L87.00 4.87L87.00 4.87Q87.21 4.68 87.51 4.68L87.51 4.68L87.51 4.68Q87.84 4.68 88.03 4.87L88.03 4.87L88.03 4.87Q88.23 5.07 88.23 5.39L88.23 5.39L88.23 12.31ZM87.51 1.58L87.51 1.58Q87.89 1.58 88.17 1.85L88.17 1.85L88.17 1.85Q88.44 2.13 88.44 2.51L88.44 2.51L88.44 2.51Q88.44 2.88 88.17 3.16L88.17 3.16L88.17 3.16Q87.89 3.43 87.51 3.43L87.51 3.43L87.51 3.43Q87.14 3.43 86.86 3.16L86.86 3.16L86.86 3.16Q86.59 2.88 86.59 2.51L86.59 2.51L86.59 2.51Q86.59 2.13 86.86 1.85L86.86 1.85L86.86 1.85Q87.14 1.58 87.51 1.58L87.51 1.58ZM94.36 4.62L94.36 4.62Q95.44 4.62 96.31 5.13L96.31 5.13L96.31 5.13Q97.19 5.64 97.70 6.53L97.70 6.53L97.70 6.53Q98.21 7.42 98.21 8.51L98.21 8.51L98.21 11.63L98.21 11.63Q98.21 11.94 98.01 12.14L98.01 12.14L98.01 12.14Q97.80 12.35 97.50 12.35L97.50 12.35L97.50 12.35Q97.19 12.35 96.98 12.14L96.98 12.14L96.98 12.14Q96.78 11.94 96.78 11.63L96.78 11.63L96.78 11.12L96.78 11.12Q96.29 11.72 95.59 12.05L95.59 12.05L95.59 12.05Q94.89 12.39 94.08 12.39L94.08 12.39L94.08 12.39Q93.07 12.39 92.25 11.89L92.25 11.89L92.25 11.89Q91.43 11.38 90.97 10.49L90.97 10.49L90.97 10.49Q90.50 9.60 90.50 8.51L90.50 8.51L90.50 8.51Q90.50 7.42 91 6.53L91 6.53L91 6.53Q91.50 5.64 92.39 5.13L92.39 5.13L92.39 5.13Q93.28 4.62 94.36 4.62L94.36 4.62ZM94.36 11.13L94.36 11.13Q95.06 11.13 95.63 10.79L95.63 10.79L95.63 10.79Q96.19 10.44 96.52 9.85L96.52 9.85L96.52 9.85Q96.84 9.25 96.84 8.51L96.84 8.51L96.84 8.51Q96.84 7.77 96.52 7.17L96.52 7.17L96.52 7.17Q96.19 6.57 95.63 6.22L95.63 6.22L95.63 6.22Q95.06 5.88 94.36 5.88L94.36 5.88L94.36 5.88Q93.66 5.88 93.09 6.22L93.09 6.22L93.09 6.22Q92.53 6.57 92.20 7.17L92.20 7.17L92.20 7.17Q91.87 7.77 91.87 8.51L91.87 8.51L91.87 8.51Q91.87 9.25 92.20 9.85L92.20 9.85L92.20 9.85Q92.53 10.44 93.09 10.79L93.09 10.79L93.09 10.79Q93.66 11.13 94.36 11.13L94.36 11.13Z"></path></g><!----><!----></svg>